<svg id="icon-resources" xmlns="http://www.w3.org/2000/svg" xmlns:xlink="http://www.w3.org/1999/xlink" width="50" height="36" viewBox="0 0 50 36">
  <defs>
    <clipPath id="clip-path">
      <rect id="Rectangle_5462" data-name="Rectangle 5462" width="43.895" height="31.681" fill="#274daa"/>
    </clipPath>
  </defs>
  <rect id="Rectangle_5453" data-name="Rectangle 5453" width="50" height="36" fill="none"/>
  <g id="Warstwa_2-2" transform="translate(2.841 2.131)">
    <g id="Group_26665" data-name="Group 26665">
      <g id="Group_26665-2" data-name="Group 26665" clip-path="url(#clip-path)">
        <path id="Path_207009" data-name="Path 207009" d="M30.238,13.146a.452.452,0,0,1-.092-.009.459.459,0,0,1-.357-.54,3.753,3.753,0,0,0,.076-.8v-.1a4.221,4.221,0,0,0-4.216-4.21h-.006a4.282,4.282,0,0,0-4.3,4.3,3.737,3.737,0,0,0,.076.8.458.458,0,1,1-.9.185,4.679,4.679,0,0,1-.094-.994,5.2,5.2,0,0,1,5.179-5.21h.007A5.146,5.146,0,0,1,30.782,11.7v.1a4.6,4.6,0,0,1-.094.981.458.458,0,0,1-.448.366m6.661,0a.458.458,0,0,1-.458-.458v-2.3c0-.057-.024-.089-.06-.1l-2.714-.476a.458.458,0,0,1-.364-.333,5.625,5.625,0,0,0-.657-1.517.458.458,0,0,1,.011-.5l1.6-2.337a.077.077,0,0,0-.009-.1L32.328,3.111a.131.131,0,0,0-.152,0L29.888,4.7a.458.458,0,0,1-.494.018,6.827,6.827,0,0,0-1.537-.665.457.457,0,0,1-.322-.36l-.467-2.663a.21.21,0,0,0-.173-.112H24.18a.119.119,0,0,0-.094.09L23.58,3.758a.458.458,0,0,1-.335.36,5.965,5.965,0,0,0-1.464.6A.459.459,0,0,1,21.3,4.7L19,3.161c-.058-.045-.1-.04-.114-.02L16.941,5.092a.075.075,0,0,0-.018.1l1.543,2.26a.457.457,0,0,1,.03.466,8.926,8.926,0,0,0-.614,1.56.459.459,0,0,1-.361.325l-2.7.475a.086.086,0,0,0-.076.086v2.311a.458.458,0,1,1-.916,0v-2.3a1,1,0,0,1,.839-1l2.416-.425a9.853,9.853,0,0,1,.474-1.2L16.168,5.709A.981.981,0,0,1,16.3,4.437l1.893-1.9.011-.011a.935.935,0,0,1,.628-.316.957.957,0,0,1,.711.218l2.033,1.359a6.882,6.882,0,0,1,1.154-.474l.46-2.5A1.044,1.044,0,0,1,24.164,0h2.758a1.133,1.133,0,0,1,1.021.742.538.538,0,0,1,.021.077l.428,2.438a7.752,7.752,0,0,1,1.212.524l2.065-1.435a1.053,1.053,0,0,1,1.3.105l1.929,1.929a.993.993,0,0,1,.118,1.265l-1.433,2.1a6.562,6.562,0,0,1,.528,1.22l2.432.427a.992.992,0,0,1,.819,1.018v2.28a.458.458,0,0,1-.458.458" transform="translate(-3.298 0.71)" fill="#274daa"/>
        <path id="Path_207009_-_Outline" data-name="Path 207009 - Outline" d="M20.9,13.251a.64.64,0,0,1-.623-.507,4.862,4.862,0,0,1-.1-1.032,5.381,5.381,0,0,1,5.356-5.385h.008A5.329,5.329,0,0,1,29.323,7.88a5.259,5.259,0,0,1,1.564,3.749v.1a4.755,4.755,0,0,1-.1,1.017.638.638,0,0,1-.622.508.636.636,0,0,1-.624-.763,3.574,3.574,0,0,0,.072-.76v-.1A4.043,4.043,0,0,0,25.577,7.6h-.006a4.1,4.1,0,0,0-4.123,4.121,3.591,3.591,0,0,0,.072.769.636.636,0,0,1-.623.764Zm4.636-6.569a5.025,5.025,0,0,0-5,5.032,4.512,4.512,0,0,0,.091.959.281.281,0,0,0,.55-.113,3.939,3.939,0,0,1-.08-.842A4.46,4.46,0,0,1,25.57,7.242h.006a4.4,4.4,0,0,1,4.394,4.387v.1a3.93,3.93,0,0,1-.08.834.281.281,0,1,0,.55.112,4.4,4.4,0,0,0,.091-.943v-.1a4.979,4.979,0,0,0-4.991-4.947Zm11.293,6.569a.636.636,0,0,1-.636-.636V10.378l-2.627-.461a.638.638,0,0,1-.5-.463,5.449,5.449,0,0,0-.636-1.469.635.635,0,0,1,.016-.695L33.99,5.024,32.171,3.205,29.917,4.771a.636.636,0,0,1-.685.026,6.651,6.651,0,0,0-1.5-.648.639.639,0,0,1-.447-.5l-.46-2.623a.031.031,0,0,0-.013-.005H24.177l-.5,2.7a.639.639,0,0,1-.465.5A5.785,5.785,0,0,0,21.8,4.8a.636.636,0,0,1-.671-.023l-2.26-1.513L17.047,5.092l1.492,2.186a.635.635,0,0,1,.041.647,8.748,8.748,0,0,0-.6,1.529.633.633,0,0,1-.5.45l-2.628.463V12.6a.636.636,0,1,1-1.271,0V10.3a1.177,1.177,0,0,1,.988-1.176l2.309-.407a10.068,10.068,0,0,1,.406-1.028L15.948,5.737a1.156,1.156,0,0,1,.155-1.5L18,2.336a1.165,1.165,0,0,1,.86-.382,1.143,1.143,0,0,1,.718.258l1.939,1.3A7.085,7.085,0,0,1,22.5,3.1L22.945.7a1.216,1.216,0,0,1,1.14-.95h2.774a1.3,1.3,0,0,1,1.177.859.721.721,0,0,1,.028.106l.41,2.336a7.951,7.951,0,0,1,1.042.451L31.5,2.126a1.258,1.258,0,0,1,.683-.2,1.219,1.219,0,0,1,.833.328l0,0,1.929,1.929a1.17,1.17,0,0,1,.139,1.491L33.714,7.68a6.76,6.76,0,0,1,.455,1.053l2.327.408a1.17,1.17,0,0,1,.966,1.2v2.277A.636.636,0,0,1,36.827,13.251Zm-.281-2.934v2.3a.281.281,0,1,0,.561,0V10.327a.814.814,0,0,0-.672-.836L33.9,9.046l-.033-.1a6.4,6.4,0,0,0-.513-1.187l-.054-.1,1.5-2.187a.815.815,0,0,0-.1-1.039L32.769,2.508a.865.865,0,0,0-.588-.231.9.9,0,0,0-.488.145L29.541,3.917l-.1-.052a7.589,7.589,0,0,0-1.184-.512l-.1-.034L27.715.778A.358.358,0,0,0,27.7.727a.953.953,0,0,0-.858-.622H24.094a.864.864,0,0,0-.8.674l-.479,2.6-.1.032a6.723,6.723,0,0,0-1.124.462l-.093.049L19.358,2.492a.786.786,0,0,0-.579-.178.764.764,0,0,0-.509.252l-.023.025-1.9,1.9a.8.8,0,0,0-.109,1.043L17.69,7.658l-.043.092a9.7,9.7,0,0,0-.465,1.179l-.033.1-2.522.444a.821.821,0,0,0-.693.82v2.3a.281.281,0,1,0,.561,0V10.29a.263.263,0,0,1,.224-.261l2.7-.475a.28.28,0,0,0,.221-.2,9.1,9.1,0,0,1,.626-1.591.28.28,0,0,0-.018-.286L16.7,5.218a.253.253,0,0,1,.041-.326l1.935-1.945a.22.22,0,0,1,.165-.071.3.3,0,0,1,.183.068l2.3,1.538a.285.285,0,0,0,.3.01,6.141,6.141,0,0,1,1.507-.618.282.282,0,0,0,.206-.221L23.841.891A.294.294,0,0,1,24.1.666h2.736a.39.39,0,0,1,.32.207L27.166.9l.472,2.691a.282.282,0,0,0,.2.22,7.006,7.006,0,0,1,1.577.683.285.285,0,0,0,.3-.011l2.293-1.592a.318.318,0,0,1,.174-.052.284.284,0,0,1,.2.073l0,0L34.3,4.832a.255.255,0,0,1,.03.324l-1.6,2.337a.28.28,0,0,0-.007.307A5.8,5.8,0,0,1,33.4,9.364a.282.282,0,0,0,.223.2l2.714.476A.258.258,0,0,1,36.546,10.317Z" transform="translate(-3.225 0.782)" fill="#274daa"/>
        <path id="Path_207010" data-name="Path 207010" d="M36.675,34.344a2.9,2.9,0,1,1,2.9,2.9,2.9,2.9,0,0,1-2.9-2.9m.914,0a1.987,1.987,0,1,0,1.989-1.985,1.989,1.989,0,0,0-1.989,1.985m-19.252,0a2.9,2.9,0,1,1,2.9,2.9,2.9,2.9,0,0,1-2.9-2.9m.916,0a1.985,1.985,0,1,0,1.985-1.985,1.989,1.989,0,0,0-1.985,1.985M0,34.344a2.9,2.9,0,1,1,2.9,2.9,2.9,2.9,0,0,1-2.9-2.9Zm.914,0A1.987,1.987,0,1,0,2.9,32.359,1.989,1.989,0,0,0,.915,34.344m38.329-6.115V25.738a.721.721,0,0,0-.721-.721H21.691v3.212a.456.456,0,0,1-.455.457h0a.455.455,0,0,1-.457-.455V25.017H4.2a.72.72,0,0,0-.719.721v2.491a.458.458,0,0,1-.459.457h0a.456.456,0,0,1-.457-.454V25.738A1.637,1.637,0,0,1,4.2,24.1H38.518a1.638,1.638,0,0,1,1.638,1.637h0v2.491a.458.458,0,0,1-.459.457h0a.456.456,0,0,1-.452-.457" transform="translate(0.71 -6.275)" fill="#274daa"/>
        <path id="Path_207010_-_Outline" data-name="Path 207010 - Outline" d="M39.5,37.351h0a3.079,3.079,0,1,1,3.076-3.079A3.087,3.087,0,0,1,39.5,37.351Zm0-5.8a2.724,2.724,0,1,0,2.721,2.724A2.731,2.731,0,0,0,39.5,31.547Zm-18.338,5.8h0a3.079,3.079,0,1,1,3.079-3.08A3.086,3.086,0,0,1,21.165,37.351Zm0-5.8a2.724,2.724,0,1,0,2.724,2.724A2.73,2.73,0,0,0,21.165,31.547ZM2.83,37.351h0A3.086,3.086,0,0,1-.25,34.271v-.178h.006A3.078,3.078,0,1,1,2.83,37.351ZM.106,34.329a2.756,2.756,0,1,0,0-.058Zm39.4,2.1a2.163,2.163,0,1,1,0-4.325h0a2.163,2.163,0,0,1,0,4.325Zm0-3.97a1.807,1.807,0,1,0,1.808,1.807A1.814,1.814,0,0,0,39.5,32.464Zm-18.338,3.97a2.163,2.163,0,0,1,0-4.325h0a2.163,2.163,0,0,1,0,4.325Zm0-3.97a1.807,1.807,0,1,0,1.807,1.807A1.815,1.815,0,0,0,21.166,32.464ZM2.831,36.434a2.163,2.163,0,1,1,0-4.325h0a2.163,2.163,0,0,1,0,4.325Zm0-3.97a1.807,1.807,0,1,0,1.808,1.807A1.814,1.814,0,0,0,2.83,32.464Zm36.795-3.672h0a.636.636,0,0,1-.629-.635V25.665a.544.544,0,0,0-.543-.543H21.8v3.035a.634.634,0,0,1-.632.635h0a.634.634,0,0,1-.633-.632V25.122H4.13a.543.543,0,0,0-.541.543v2.492a.636.636,0,0,1-1.272,0v-2.5A1.816,1.816,0,0,1,4.128,23.85H38.445a1.817,1.817,0,0,1,1.815,1.815v2.492A.637.637,0,0,1,39.625,28.791ZM21.441,24.767H38.45a.9.9,0,0,1,.9.9v2.491a.28.28,0,0,0,.276.28v0a.281.281,0,0,0,.28-.28V25.665a1.462,1.462,0,0,0-1.46-1.46H4.128a1.46,1.46,0,0,0-1.456,1.46v2.491a.281.281,0,0,0,.562,0V25.665a.9.9,0,0,1,.9-.9H20.883v3.39a.279.279,0,1,0,.558,0Z" transform="translate(0.783 -6.202)" fill="#274daa"/>
      </g>
    </g>
  </g>
</svg>
