<svg id="icon-translation" xmlns="http://www.w3.org/2000/svg" width="50" height="36" viewBox="0 0 50 36">
  <rect id="Rectangle_5450" data-name="Rectangle 5450" width="50" height="36" fill="none"/>
  <g id="Group_26658" data-name="Group 26658" transform="translate(2.678 1.964)">
    <path id="Path_207016" data-name="Path 207016" d="M11185.192-16297.486a.428.428,0,0,1-.179-.58l3.234-6.105a.545.545,0,0,1,.086-.111,13.925,13.925,0,0,0,3.457-5.243,13.722,13.722,0,0,0,.852-4.789,13.84,13.84,0,0,0-1.253-5.76l-3.062,2.269-3.794,2.807-8.073,5.966-2.257,1.665-4.576,3.38a13.72,13.72,0,0,0,9.187,3.5,13.563,13.563,0,0,0,4.528-.767.43.43,0,0,1,.548.261.432.432,0,0,1-.262.548,14.464,14.464,0,0,1-4.814.815,14.56,14.56,0,0,1-10.154-4.089.443.443,0,0,1-.114-.188h0l0-.019a.011.011,0,0,0,0,0,.06.06,0,0,0,0-.013s0-.007,0-.011,0,0,0-.008a.076.076,0,0,1,0-.016s0,0,0,0a.108.108,0,0,0,0-.019h0a.452.452,0,0,1,.027-.184h0s0-.011.008-.017,0,0,0,0l.007-.014a.021.021,0,0,0,0-.007.023.023,0,0,0,0-.01l.008-.013v0a.447.447,0,0,1,.06-.078.4.4,0,0,1,.081-.066l7.222-5.332,8.073-5.962,3.791-2.808,3.48-2.578,0,0,.021-.015.007,0,.028-.017.027-.012.006,0,.021-.008.01,0,.024-.007,0,0,.03,0h0l.03,0h0a.429.429,0,0,1,.308.1.414.414,0,0,1,.072.076.391.391,0,0,1,.057.1,14.637,14.637,0,0,1,1.548,6.564,14.549,14.549,0,0,1-.9,5.085,14.813,14.813,0,0,1-3.621,5.521l-3.2,6.045a.426.426,0,0,1-.381.228A.423.423,0,0,1,11185.192-16297.486Zm-24.023-2.521a1.373,1.373,0,0,1-.7-.237l-2.623-1.713-.006,0a1.437,1.437,0,0,1-.4-1.979,1.445,1.445,0,0,1,.536-.477.012.012,0,0,1,.009,0l1.049-.527a19.878,19.878,0,0,1-1.459-4.01,20.213,20.213,0,0,1-.576-4.81,19.976,19.976,0,0,1,3.363-11.138.428.428,0,0,1,.594-.117.425.425,0,0,1,.12.595,19.109,19.109,0,0,0-3.223,10.66,18.911,18.911,0,0,0,1.946,8.434l.984-.5a1.441,1.441,0,0,1,.641-.152,1.423,1.423,0,0,1,1.276.784,1.469,1.469,0,0,1,.155.712.011.011,0,0,1,0,.009l-.185,3.141a.559.559,0,0,1-.018.1,1.407,1.407,0,0,1-1.4,1.229Zm-2.795-3.647a.561.561,0,0,0-.214.188.571.571,0,0,0,.155.8l2.626,1.713a.019.019,0,0,1,.012.006.482.482,0,0,0,.257.087h.012a.55.55,0,0,0,.586-.523c0-.026.006-.053.012-.082l.182-3.05a.616.616,0,0,0-.062-.287.577.577,0,0,0-.513-.315.524.524,0,0,0-.254.063l-1.315.66a.314.314,0,0,1-.047.028.364.364,0,0,1-.069.03Zm39.4,1.145a.427.427,0,0,1-.12-.595,19.106,19.106,0,0,0,3.22-10.66,18.974,18.974,0,0,0-1.792-8.1l-.464.417h0a1.431,1.431,0,0,1-.95.363,1.4,1.4,0,0,1-1.06-.48,1.4,1.4,0,0,1-.325-.652l-.636-3.045c0-.009-.006-.021-.009-.032a1.421,1.421,0,0,1,1.095-1.681,1.548,1.548,0,0,1,.3-.028,1.351,1.351,0,0,1,.442.072l2.979.969a1.416,1.416,0,0,1,.828.718,1.4,1.4,0,0,1,.073,1.095,1.453,1.453,0,0,1-.39.6.04.04,0,0,1-.009.01l-1.2,1.079a19.922,19.922,0,0,1,1.43,4.008,20.2,20.2,0,0,1,.554,4.692,19.976,19.976,0,0,1-3.363,11.138.435.435,0,0,1-.357.19A.419.419,0,0,1,11197.771-16302.51Zm-.869-23.628a.563.563,0,0,0-.354.243.552.552,0,0,0-.085.389c0,.009.007.018.009.026l.642,3.086a.544.544,0,0,0,.129.257.549.549,0,0,0,.419.19.575.575,0,0,0,.383-.146l.841-.753a.443.443,0,0,1,.1-.088l1.392-1.246a.627.627,0,0,0,.167-.255.563.563,0,0,0-.032-.43.557.557,0,0,0-.328-.287l-2.982-.969a.012.012,0,0,0-.009,0,.522.522,0,0,0-.168-.027A.549.549,0,0,0,11196.9-16326.138Zm-12.9,21.354a1.312,1.312,0,0,1-.39-.945,1.362,1.362,0,0,1,.381-.942l.009-.009a1.31,1.31,0,0,1,.954-.4,1.251,1.251,0,0,1,.949.4,1.309,1.309,0,0,1,.392.949,1.256,1.256,0,0,1-.4.948,1.3,1.3,0,0,1-.943.4A1.31,1.31,0,0,1,11184-16304.784Zm.513-1.4a.63.63,0,0,0-.187.451.6.6,0,0,0,.182.442.592.592,0,0,0,.447.187.576.576,0,0,0,.434-.184c.006,0,.009-.01.015-.015a.535.535,0,0,0,.179-.431.589.589,0,0,0-.187-.448l-.009-.009a.544.544,0,0,0-.431-.179A.574.574,0,0,0,11184.517-16306.181Zm-3.4,1.795a1.3,1.3,0,0,1-.951-.4,1.282,1.282,0,0,1-.39-.945,1.333,1.333,0,0,1,.384-.949l.006,0a1.3,1.3,0,0,1,.951-.4,1.3,1.3,0,0,1,.77.242,1.384,1.384,0,0,1,.185.156l0,0,.006.007.007.008a1.321,1.321,0,0,1,.374.935,1.294,1.294,0,0,1-.39.945,1.308,1.308,0,0,1-.954.4Zm0-.715a.606.606,0,0,0,.447-.187.623.623,0,0,0,.137-.2.619.619,0,0,0,.045-.24.624.624,0,0,0-.14-.4q-.021-.025-.044-.05a.735.735,0,0,0-.112-.092.6.6,0,0,0-.333-.1.6.6,0,0,0-.393.14l0,0-.006.006-.043.038a.64.64,0,0,0-.184.45.6.6,0,0,0,.179.442.619.619,0,0,0,.448.187Zm-3.835.715a1.315,1.315,0,0,1-.954-.4,1.381,1.381,0,0,1-.186-.23,1.3,1.3,0,0,1-.2-.715,1.32,1.32,0,0,1,.373-.935l.007-.008.009-.009a1.377,1.377,0,0,1,.281-.218,1.3,1.3,0,0,1,.673-.181,1.3,1.3,0,0,1,.948.4,1.27,1.27,0,0,1,.4.954,1.255,1.255,0,0,1-.4.951,1.3,1.3,0,0,1-.948.393Zm0-.715a.619.619,0,0,0,.448-.187s.006-.01.009-.012a.544.544,0,0,0,.173-.431.582.582,0,0,0-.14-.4c-.012-.014-.025-.027-.039-.041s0,0,0-.006a.62.62,0,0,0-.448-.187.6.6,0,0,0-.437.181l-.006,0a.626.626,0,0,0-.187.45.6.6,0,0,0,.045.24.638.638,0,0,0,.137.2.606.606,0,0,0,.447.187Zm-10.774-1.6h0a.422.422,0,0,1-.369-.211,14.182,14.182,0,0,1-1.106-2.318,14.527,14.527,0,0,1-.9-5.085,14.593,14.593,0,0,1,4.227-10.3,14.574,14.574,0,0,1,4.593-3.156,14.519,14.519,0,0,1,5.6-1.211,1.756,1.756,0,0,1,.267-.015,14.531,14.531,0,0,1,6,1.281,14.616,14.616,0,0,1,4.8,3.463.426.426,0,0,1,.063.49l0,.01s0,0,0,.007a.423.423,0,0,1-.105.12l-.013.01-5.371,3.964a.385.385,0,0,1-.062.057l-2.435,1.8a.611.611,0,0,1-.059.039l-7.972,5.889a.339.339,0,0,1-.056.036l-6.829,5.052a.428.428,0,0,1-.254.082Zm-1.525-7.614a13.672,13.672,0,0,0,.853,4.786,12.821,12.821,0,0,0,.8,1.771l6.315-4.671c-.034-.61-.051-1.242-.051-1.877,0-1.2.051-2.346.153-3.417h-7.646A13.733,13.733,0,0,0,11164.986-16314.315Zm8.778.01c0,.424.009.848.023,1.263l6.339-4.68h-6.205C11173.819-16316.654,11173.765-16315.508,11173.765-16314.306Zm7.523-4.274,2.108-1.562c-.844-4.795-2.669-8-4.573-8a.819.819,0,0,0-.152.008c-.012,0-.021,0-.032,0-1,.112-2.02,1.133-2.856,2.881a22.275,22.275,0,0,0-1.765,6.665Zm-8.135,0a22.95,22.95,0,0,1,1.855-7.036,8.282,8.282,0,0,1,1.579-2.337,13.9,13.9,0,0,0-10.923,9.373Zm9.092-7.789a18.606,18.606,0,0,1,1.919,5.66l4.491-3.312a13.855,13.855,0,0,0-7.6-3.937A7.3,7.3,0,0,1,11182.245-16326.369Z" transform="translate(-11156.822 16329.179)" fill="#555"/>
    <path id="Union_86_-_Outline" data-name="Union 86 - Outline" d="M11185.32-16297.33a.575.575,0,0,1-.283-.071.6.6,0,0,1-.3-.356.611.611,0,0,1,.044-.463l3.237-6.112a.733.733,0,0,1,.114-.148l0,0a13.735,13.735,0,0,0,3.413-5.176,13.536,13.536,0,0,0,.841-4.727,13.719,13.719,0,0,0-1.146-5.484l-2.884,2.137-3.794,2.807-10.33,7.631-4.4,3.248a13.58,13.58,0,0,0,8.9,3.313,13.4,13.4,0,0,0,4.47-.757.591.591,0,0,1,.2-.035.609.609,0,0,1,.572.4.609.609,0,0,1-.369.776,14.643,14.643,0,0,1-4.875.826,14.737,14.737,0,0,1-10.277-4.139.621.621,0,0,1-.162-.268l-.009-.035-.012-.012,0-.084a.6.6,0,0,1,.034-.247v-.013l.024-.046v0l.024-.043a.676.676,0,0,1,.084-.109.564.564,0,0,1,.109-.09l15.291-11.291,7.266-5.383.019-.013.02-.014a.084.084,0,0,1,.019-.011.226.226,0,0,1,.037-.021l0,0,.049-.021.016-.006.023-.008.016,0,.006,0,.03-.006.024,0,.021,0,.036,0,.047,0a.6.6,0,0,1,.387.14.587.587,0,0,1,.1.106.541.541,0,0,1,.076.137,14.817,14.817,0,0,1,1.564,6.638,14.709,14.709,0,0,1-.916,5.146,15.021,15.021,0,0,1-3.645,5.568l-3.188,6.019A.6.6,0,0,1,11185.32-16297.33Zm3.013-6.827-3.233,6.1a.247.247,0,0,0,.1.337.231.231,0,0,0,.116.029.247.247,0,0,0,.223-.132l3.216-6.07.021-.021a14.63,14.63,0,0,0,3.577-5.454,14.359,14.359,0,0,0,.894-5.022,14.462,14.462,0,0,0-1.529-6.484l-.008-.019a.287.287,0,0,0-.032-.059.3.3,0,0,0-.042-.044.252.252,0,0,0-.16-.058.059.059,0,0,0-.022,0l-.022,0c-.006,0-.012,0-.02,0h0l-.013,0-.017.008h0l-.016.007-.012.008-.021.014-7.271,5.386-15.306,11.3a.277.277,0,0,0-.049.039l-.01.012-.028.042,0,.008s0,0,0,0l-.007.015a.041.041,0,0,1,0,.01.259.259,0,0,0-.014.061l0,0v.057l0,.007,0,.023.009.028a.254.254,0,0,0,.06.09,14.383,14.383,0,0,0,10.029,4.038,14.263,14.263,0,0,0,4.756-.806.251.251,0,0,0,.152-.319.251.251,0,0,0-.236-.166.27.27,0,0,0-.084.014,13.736,13.736,0,0,1-4.588.777,13.937,13.937,0,0,1-9.306-3.548l-.163-.146.176-.13,6.834-5.046,8.073-5.965,3.794-2.807,3.238-2.4.092.2a14.064,14.064,0,0,1,1.27,5.835,13.9,13.9,0,0,1-.863,4.852,14.085,14.085,0,0,1-3.5,5.308A.431.431,0,0,0,11188.333-16304.157Zm-27.147,4.258h-.1a1.553,1.553,0,0,1-.794-.268l-2.629-1.715a1.616,1.616,0,0,1-.444-2.227,1.609,1.609,0,0,1,.594-.532.216.216,0,0,1,.037-.018l.873-.438a20.074,20.074,0,0,1-1.395-3.887,20.386,20.386,0,0,1-.581-4.853,20.151,20.151,0,0,1,3.394-11.236.6.6,0,0,1,.5-.27.594.594,0,0,1,.338.1.594.594,0,0,1,.26.378.614.614,0,0,1-.09.462,18.932,18.932,0,0,0-3.193,10.563,18.745,18.745,0,0,0,1.85,8.193l.822-.414a1.614,1.614,0,0,1,.721-.172,1.6,1.6,0,0,1,1.436.883,1.656,1.656,0,0,1,.174.8.216.216,0,0,1,0,.037l-.184,3.123a.78.78,0,0,1-.02.116A1.589,1.589,0,0,1,11161.186-16299.9Zm-.084-.357h.084a1.23,1.23,0,0,0,1.219-1.073l0-.012,0-.013a.455.455,0,0,0,.012-.063l.188-3.2a1.266,1.266,0,0,0-.138-.571,1.244,1.244,0,0,0-1.116-.687,1.25,1.25,0,0,0-.561.134l-1.146.576-.079-.162a19.108,19.108,0,0,1-1.965-8.513,19.29,19.29,0,0,1,3.253-10.76.255.255,0,0,0,.038-.191.242.242,0,0,0-.106-.153.25.25,0,0,0-.142-.044.251.251,0,0,0-.208.11,19.809,19.809,0,0,0-3.332,11.038,20.011,20.011,0,0,0,.571,4.767,19.605,19.605,0,0,0,1.445,3.974l.077.159-1.245.626a1.248,1.248,0,0,0-.437.4,1.258,1.258,0,0,0,.334,1.726.144.144,0,0,1,.021.013l2.621,1.711A1.19,1.19,0,0,0,11161.1-16300.257Zm.086-.5h0l-.043,0h-.012a.654.654,0,0,1-.313-.094h0l-.045-.029-2.629-1.714a.751.751,0,0,1-.2-1.042.733.733,0,0,1,.28-.248l1.381-.693.014,0a.221.221,0,0,0,.033-.015l.012-.006a.116.116,0,0,0,.021-.014l.012-.008.013-.007,1.313-.658a.709.709,0,0,1,.337-.084.751.751,0,0,1,.67.413.773.773,0,0,1,.082.373v0l-.182,3.063,0,.012c0,.02-.007.039-.009.063A.728.728,0,0,1,11161.188-16300.756Zm-.046-.359h.046a.369.369,0,0,0,.369-.355l0-.01c0-.021.006-.051.012-.085l.18-3.036a.422.422,0,0,0-.042-.2.4.4,0,0,0-.353-.218.357.357,0,0,0-.17.043l0,0-1.3.654a.441.441,0,0,1-.053.03.433.433,0,0,1-.086.039l-1.355.681a.36.36,0,0,0-.143.125.392.392,0,0,0,.1.551l2.607,1.7a.157.157,0,0,1,.037.022A.308.308,0,0,0,11161.142-16301.115Zm36.794-1.214a.594.594,0,0,1-.336-.1.586.586,0,0,1-.258-.379.605.605,0,0,1,.088-.461,18.931,18.931,0,0,0,3.191-10.562,18.816,18.816,0,0,0-1.676-7.809l-.334.3h-.007a1.6,1.6,0,0,1-1.017.364,1.581,1.581,0,0,1-1.193-.542,1.589,1.589,0,0,1-.366-.734l-.634-3.036c0-.011-.006-.023-.008-.035l0,0a1.576,1.576,0,0,1,.221-1.2,1.59,1.59,0,0,1,1.012-.7,1.627,1.627,0,0,1,.336-.033,1.5,1.5,0,0,1,.5.082l2.978.969a1.586,1.586,0,0,1,.934.808,1.583,1.583,0,0,1,.082,1.232,1.639,1.639,0,0,1-.432.668l-.019.018-1.1.988a20.176,20.176,0,0,1,1.385,3.922,20.473,20.473,0,0,1,.559,4.734,20.152,20.152,0,0,1-3.395,11.236A.612.612,0,0,1,11197.936-16302.329Zm1.131-19.9.1.219a19.17,19.17,0,0,1,1.809,8.179,19.293,19.293,0,0,1-3.25,10.76.246.246,0,0,0-.036.191.24.24,0,0,0,.1.153.244.244,0,0,0,.14.045.255.255,0,0,0,.211-.113,19.806,19.806,0,0,0,3.332-11.036,20.061,20.061,0,0,0-.549-4.65,19.813,19.813,0,0,0-1.417-3.973l-.058-.121.1-.09,1.2-1.077a.01.01,0,0,0,0,0l0,0a1.283,1.283,0,0,0,.343-.526,1.223,1.223,0,0,0-.064-.957,1.231,1.231,0,0,0-.725-.629l-2.982-.97a1.141,1.141,0,0,0-.383-.062,1.265,1.265,0,0,0-.264.025,1.226,1.226,0,0,0-.783.542,1.219,1.219,0,0,0-.172.925.047.047,0,0,0,0,.015l0,.02.636,3.045a1.222,1.222,0,0,0,.283.569,1.227,1.227,0,0,0,.926.421,1.25,1.25,0,0,0,.832-.318l.051-.045h0Zm-14.18,17.954a1.482,1.482,0,0,1-1.08-.449,1.489,1.489,0,0,1-.441-1.072,1.524,1.524,0,0,1,.428-1.063l0,0,.012-.012a1.482,1.482,0,0,1,1.08-.449,1.421,1.421,0,0,1,1.076.454,1.478,1.478,0,0,1,.443,1.073,1.43,1.43,0,0,1-.451,1.076A1.466,1.466,0,0,1,11184.887-16304.279Zm-.833-2.341a1.181,1.181,0,0,0-.332.819,1.134,1.134,0,0,0,.337.819,1.138,1.138,0,0,0,.828.346,1.115,1.115,0,0,0,.815-.342l0,0a1.085,1.085,0,0,0,.342-.818,1.138,1.138,0,0,0-.34-.823l0,0a1.08,1.08,0,0,0-.818-.344,1.139,1.139,0,0,0-.826.344Zm-3,2.341a1.482,1.482,0,0,1-1.077-.449,1.458,1.458,0,0,1-.441-1.072,1.507,1.507,0,0,1,.433-1.072l.053-.055h.008a1.468,1.468,0,0,1,1.025-.4,1.477,1.477,0,0,1,.873.274,1.507,1.507,0,0,1,.208.175l.021.021a1.5,1.5,0,0,1,.421,1.057,1.469,1.469,0,0,1-.441,1.072A1.486,1.486,0,0,1,11181.049-16304.279Zm-.86-2.312a1.155,1.155,0,0,0-.3.79,1.11,1.11,0,0,0,.337.818,1.133,1.133,0,0,0,.825.347,1.136,1.136,0,0,0,.828-.346,1.122,1.122,0,0,0,.338-.819,1.146,1.146,0,0,0-.324-.811l-.01-.012,0,0a1.157,1.157,0,0,0-.16-.136,1.113,1.113,0,0,0-.668-.21,1.132,1.132,0,0,0-.824.346Zm-2.974,2.312a1.5,1.5,0,0,1-1.08-.449,1.631,1.631,0,0,1-.211-.262,1.475,1.475,0,0,1-.23-.811,1.493,1.493,0,0,1,.418-1.054l0,0,0,0,.019-.019a1.58,1.58,0,0,1,.316-.245,1.473,1.473,0,0,1,.764-.2,1.465,1.465,0,0,1,1.072.445,1.438,1.438,0,0,1,.449,1.082,1.429,1.429,0,0,1-.449,1.08A1.48,1.48,0,0,1,11177.215-16304.279Zm-.832-2.342-.008.008a1.142,1.142,0,0,0-.324.813,1.128,1.128,0,0,0,.174.618,1.213,1.213,0,0,0,.163.2,1.13,1.13,0,0,0,.827.345,1.131,1.131,0,0,0,.822-.341l0,0a1.083,1.083,0,0,0,.34-.821,1.094,1.094,0,0,0-.341-.825l0,0a1.124,1.124,0,0,0-.822-.343,1.128,1.128,0,0,0-.582.155,1.179,1.179,0,0,0-.246.19Zm8.5,1.628a.773.773,0,0,1-.574-.238.77.77,0,0,1-.234-.569.81.81,0,0,1,.236-.573.752.752,0,0,1,.572-.241.723.723,0,0,1,.559.233l.007.007a.766.766,0,0,1,.24.574.712.712,0,0,1-.23.557l-.022.022A.753.753,0,0,1,11184.887-16304.993Zm0-1.265a.4.4,0,0,0-.314.131.451.451,0,0,0-.137.326.412.412,0,0,0,.131.315.41.41,0,0,0,.32.135.4.4,0,0,0,.3-.129l.023-.023h0a.356.356,0,0,0,.118-.3.409.409,0,0,0-.136-.321l-.014-.015A.365.365,0,0,0,11184.887-16306.258Zm-3.838,1.265a.8.8,0,0,1-.572-.238l0,0a.775.775,0,0,1-.229-.566.822.822,0,0,1,.23-.57l.01-.01.046-.042,0,0,.012-.01a.775.775,0,0,1,.5-.181.781.781,0,0,1,.43.124.865.865,0,0,1,.143.116c.022.023.042.046.055.062l0,0a.8.8,0,0,1,.178.508.8.8,0,0,1-.059.309.827.827,0,0,1-.174.259A.788.788,0,0,1,11181.049-16304.993Zm-.32-.492a.434.434,0,0,0,.32.135.426.426,0,0,0,.322-.135.447.447,0,0,0,.1-.144.435.435,0,0,0,.031-.172.444.444,0,0,0-.1-.287.384.384,0,0,0-.031-.034.466.466,0,0,0-.083-.069.431.431,0,0,0-.236-.066.42.42,0,0,0-.273.095l0,0-.007.006-.03.027a.462.462,0,0,0-.133.325A.42.42,0,0,0,11180.729-16305.485Zm-3.514.492a.785.785,0,0,1-.574-.239.816.816,0,0,1-.176-.26.783.783,0,0,1-.058-.309.809.809,0,0,1,.234-.572l0,0,.014-.014a.784.784,0,0,1,.555-.225.793.793,0,0,1,.572.239l.055.052v.007a.768.768,0,0,1,.182.517.724.724,0,0,1-.217.548.142.142,0,0,1-.018.021A.8.8,0,0,1,11177.215-16304.993Zm-.319-1.129a.443.443,0,0,0-.132.321.425.425,0,0,0,.031.172.467.467,0,0,0,.1.146.428.428,0,0,0,.32.133.438.438,0,0,0,.313-.125.106.106,0,0,1,.018-.021l0,0a.369.369,0,0,0,.116-.3.408.408,0,0,0-.1-.286l-.029-.03-.031-.032a.438.438,0,0,0-.293-.108.426.426,0,0,0-.314.131Zm-10.452-.472h0a.6.6,0,0,1-.525-.3,14.232,14.232,0,0,1-1.119-2.346,14.7,14.7,0,0,1-.916-5.146,14.764,14.764,0,0,1,4.278-10.429,14.773,14.773,0,0,1,4.648-3.194,14.711,14.711,0,0,1,5.657-1.226,1.96,1.96,0,0,1,.279-.015,14.7,14.7,0,0,1,6.074,1.3,14.755,14.755,0,0,1,4.859,3.5.606.606,0,0,1,.092.688.186.186,0,0,1-.011.021.046.046,0,0,1,0,.01.606.606,0,0,1-.146.168l-.012.009-.008,0-5.357,3.954a.538.538,0,0,1-.074.065l-2.433,1.8a.532.532,0,0,1-.07.046l-7.964,5.884a.457.457,0,0,1-.066.044l-6.818,5.044A.613.613,0,0,1,11166.443-16306.594Zm12.3-22.3a1.613,1.613,0,0,0-.24.013l-.012,0h-.012a14.346,14.346,0,0,0-5.53,1.2,14.379,14.379,0,0,0-4.537,3.117,14.409,14.409,0,0,0-4.175,10.178,14.361,14.361,0,0,0,.893,5.022,14.026,14.026,0,0,0,1.093,2.29.243.243,0,0,0,.216.123h.006a.252.252,0,0,0,.148-.048l6.84-5.061.015-.007a.235.235,0,0,0,.03-.021l7.991-5.9a.238.238,0,0,0,.028-.019l.01-.007,2.436-1.8a.275.275,0,0,0,.035-.032l.012-.015.016-.01,5.367-3.962.008-.006,0,0a.237.237,0,0,0,.06-.068l0,0,0-.008a.244.244,0,0,0-.037-.284,14.4,14.4,0,0,0-4.742-3.42A14.35,14.35,0,0,0,11178.742-16328.894Zm-12.229,21.33-.1-.18a12.941,12.941,0,0,1-.814-1.8,13.869,13.869,0,0,1-.863-4.848,13.987,13.987,0,0,1,.434-3.452l.035-.134h7.98l-.019.2c-.1,1.06-.153,2.2-.153,3.4,0,.647.018,1.274.051,1.867l0,.1-.077.058Zm-1.03-10.052a13.6,13.6,0,0,0-.389,3.229,13.547,13.547,0,0,0,.84,4.725,12.763,12.763,0,0,0,.7,1.567l6.072-4.492c-.031-.569-.046-1.172-.046-1.79,0-1.136.046-2.224.136-3.238Zm8.068,4.846-.013-.338c-.017-.456-.023-.871-.023-1.27,0-1.19.053-2.346.158-3.435l.017-.161h6.908Zm.463-4.846c-.095,1.029-.143,2.118-.143,3.238,0,.293,0,.6.014.917l5.628-4.155Zm7.262-.857h-7.532l.025-.2a22.56,22.56,0,0,1,1.78-6.72c.863-1.8,1.928-2.862,3-2.98l.014,0,.017,0a1.047,1.047,0,0,1,.175-.009c1,0,1.982.792,2.839,2.289a18.62,18.62,0,0,1,1.909,5.854l.02.107-.089.066Zm-7.127-.357h7.01l1.971-1.46a18.093,18.093,0,0,0-1.848-5.63c-.789-1.38-1.664-2.109-2.529-2.109a.809.809,0,0,0-.113,0l-.02,0h-.014l-.025,0c-.94.108-1.9,1.1-2.709,2.78A21.96,21.96,0,0,0,11174.148-16318.83Zm-.908.357h-7.893l.076-.234a14.089,14.089,0,0,1,4.186-6.271,13.931,13.931,0,0,1,6.879-3.224l.555-.09-.4.394a8.087,8.087,0,0,0-1.543,2.287,22.809,22.809,0,0,0-1.839,6.98Zm-7.4-.357h7.081a22.974,22.974,0,0,1,1.853-6.936,9.312,9.312,0,0,1,1.245-1.987A13.814,13.814,0,0,0,11165.843-16318.83Zm18.128-1.638-.053-.278a18.486,18.486,0,0,0-1.9-5.605,7.11,7.11,0,0,0-1.158-1.551l-.4-.4.557.092a14.028,14.028,0,0,1,4.156,1.381,13.978,13.978,0,0,1,3.541,2.607l.145.147-.166.122Zm-2.49-7.288a8.228,8.228,0,0,1,.848,1.227,18.491,18.491,0,0,1,1.885,5.438l4.1-3.021A13.763,13.763,0,0,0,11181.48-16327.756Zm16.107,5.917a.725.725,0,0,1-.551-.25.717.717,0,0,1-.172-.34l-.639-3.075c0-.006,0-.013-.007-.021l-.006-.026a.735.735,0,0,1,.112-.513.738.738,0,0,1,.465-.32.717.717,0,0,1,.367.015.211.211,0,0,1,.035.012l2.971.965a.732.732,0,0,1,.433.378.749.749,0,0,1,.041.565v0a.809.809,0,0,1-.214.325l-1.4,1.258-.013.008a.279.279,0,0,0-.058.051l-.008.011-.01.009-.842.754A.755.755,0,0,1,11197.588-16321.839Zm-1.023-3.779.006.016,0,.016.642,3.085a.361.361,0,0,0,.085.173l0,0a.37.37,0,0,0,.283.13.391.391,0,0,0,.264-.1l.832-.745a.624.624,0,0,1,.117-.1l1.381-1.237a.433.433,0,0,0,.117-.181.385.385,0,0,0-.022-.292.376.376,0,0,0-.224-.2l-2.994-.973a.362.362,0,0,0-.191-.009.378.378,0,0,0-.242.166A.384.384,0,0,0,11196.564-16325.618Z" transform="translate(-11156.751 16329.25)" fill="#555"/>
  </g>
</svg>
