<svg id="icon-configuration" xmlns="http://www.w3.org/2000/svg" xmlns:xlink="http://www.w3.org/1999/xlink" width="50" height="36" viewBox="0 0 50 36">
  <defs>
    <clipPath id="clip-path">
      <rect id="Rectangle_5461" data-name="Rectangle 5461" width="44.354" height="30.5" fill="#555" stroke="#555" stroke-width="0.5"/>
    </clipPath>
  </defs>
  <rect id="Rectangle_5451" data-name="Rectangle 5451" width="50" height="36" fill="none"/>
  <g id="Group_26664" data-name="Group 26664" transform="translate(2.857 2.857)">
    <g id="Group_26664-2" data-name="Group 26664" transform="translate(0 0)" clip-path="url(#clip-path)">
      <path id="Union_91" data-name="Union 91" d="M11.941,29.992a1.526,1.526,0,0,1-.58-.583l-1.77-3.057a1.59,1.59,0,0,1,.6-2.166l.009-.006a1.652,1.652,0,0,1,.775-.2H14.5a1.587,1.587,0,0,1,1.373,2.376l-1.841,3.176-.026.015a1.579,1.579,0,0,1-1.287.66A1.535,1.535,0,0,1,11.941,29.992Zm-1.606-4.6a.657.657,0,0,0,.064.5l1.775,3.066a.659.659,0,0,0,.23.228.676.676,0,0,0,.317.084.645.645,0,0,0,.562-.327l.071-.118.015-.006,1.7-2.937a.6.6,0,0,0,.086-.327A.654.654,0,0,0,14.5,24.9h-3.53a.679.679,0,0,0-.328.094l0-.006A.659.659,0,0,0,10.335,25.392ZM17.763,28.1a.465.465,0,1,1,0-.93h24.7a.465.465,0,0,1,.465.465v0a.467.467,0,0,1-.465.462ZM.468,28.1a.465.465,0,0,1,0-.93H7.932a.465.465,0,0,1,0,.93Zm30-6.023v0a1.511,1.511,0,0,1-.576-.581l-1.77-3.054a1.587,1.587,0,0,1,.6-2.169l0-.007a1.6,1.6,0,0,1,.778-.2h3.53a1.583,1.583,0,0,1,1.37,2.376l-1.838,3.177-.026.014a1.587,1.587,0,0,1-1.284.657h-.017A1.563,1.563,0,0,1,30.467,22.079Zm-1.6-4.6a.661.661,0,0,0,.065.506L30.7,21.043a.555.555,0,0,0,.231.229.63.63,0,0,0,.316.085.649.649,0,0,0,.563-.324l.071-.119.015-.006,1.7-2.939a.616.616,0,0,0,.086-.324.659.659,0,0,0-.654-.657H29.5a.683.683,0,0,0-.332.1v0A.618.618,0,0,0,28.863,17.475Zm7.614,1.977a.467.467,0,0,1-.461-.465.462.462,0,0,1,.461-.464h5.981a.464.464,0,0,1,0,.929Zm-36.01,0a.464.464,0,1,1,0-.929H26.022a.463.463,0,0,1,.465.464.468.468,0,0,1-.465.465Zm33.8-6.632V11.352a.133.133,0,0,0-.1-.151l-2.971-.524a.455.455,0,0,1-.366-.336,5.951,5.951,0,0,0-.735-1.67.466.466,0,0,1,.007-.512L31.864,5.6a.112.112,0,0,0-.012-.145L29.745,3.334a.172.172,0,0,0-.21-.009L27.04,5.08a.474.474,0,0,1-.494.024,9.024,9.024,0,0,0-1.714-.755.477.477,0,0,1-.316-.361L24,1.071a.253.253,0,0,0-.21-.143H20.816a.182.182,0,0,0-.159.135l-.548,3a.467.467,0,0,1-.334.364,6.9,6.9,0,0,0-1.622.673.463.463,0,0,1-.488-.021L15.158,3.384c-.077-.062-.131-.056-.162-.02L12.853,5.516a.109.109,0,0,0-.021.146l1.684,2.494a.462.462,0,0,1,.033.465,10.16,10.16,0,0,0-.678,1.726.464.464,0,0,1-.367.325l-2.962.52a.127.127,0,0,0-.113.129l0,1.494a.465.465,0,1,1-.93,0V11.343a1.038,1.038,0,0,1,.885-1.065l2.675-.471A11.655,11.655,0,0,1,13.6,8.451L12.068,6.187A1.038,1.038,0,0,1,12.2,4.849L14.3,2.758a1.008,1.008,0,0,1,1.421-.113l2.231,1.507a8.277,8.277,0,0,1,1.3-.539L19.754.86A1.117,1.117,0,0,1,20.8,0h3.016a1.185,1.185,0,0,1,1.065.79A.489.489,0,0,1,24.9.86l.479,2.692a9.89,9.89,0,0,1,1.361.6l2.271-1.6a1.111,1.111,0,0,1,1.379.112L32.5,4.793a1.038,1.038,0,0,1,.122,1.338L31.036,8.437a6.8,6.8,0,0,1,.6,1.379l2.679.47a1.058,1.058,0,0,1,.879,1.084v1.45a.464.464,0,0,1-.929,0Zm-7.216,0a4.685,4.685,0,0,0-4.673-4.686h0a4.756,4.756,0,0,0-4.741,4.69.469.469,0,0,1-.472.459.46.46,0,0,1-.458-.467,5.689,5.689,0,0,1,5.671-5.611h.008a5.617,5.617,0,0,1,5.6,5.616.465.465,0,0,1-.93,0Z" transform="translate(0.713 0)" fill="#555"/>
      <path id="Path_207007_-_Outline" data-name="Path 207007 - Outline" d="M20.893,13.393h-.006a.644.644,0,0,1-.636-.65A5.871,5.871,0,0,1,26.1,6.957h.008a5.792,5.792,0,0,1,5.778,5.794.643.643,0,0,1-.643.642h0a.644.644,0,0,1-.642-.644,4.505,4.505,0,0,0-4.494-4.506H26.1a4.58,4.58,0,0,0-4.564,4.514.652.652,0,0,1-.639.636ZM26.1,7.886h.006a4.862,4.862,0,0,1,4.851,4.864.286.286,0,0,0,.285.286h0a.286.286,0,0,0,.286-.285,5.434,5.434,0,0,0-5.421-5.436H26.1a5.512,5.512,0,0,0-5.493,5.433.286.286,0,0,0,.277.289.291.291,0,0,0,.294-.283A4.939,4.939,0,0,1,26.1,7.886Zm12.357,5.507a.644.644,0,0,1-.643-.643V11.3l-2.926-.515a.645.645,0,0,1-.51-.468A5.728,5.728,0,0,0,33.668,8.7a.643.643,0,0,1,.012-.712l1.735-2.514L33.362,3.4l-2.49,1.75a.643.643,0,0,1-.369.116.65.65,0,0,1-.317-.083,8.934,8.934,0,0,0-1.68-.74.644.644,0,0,1-.436-.5l-.515-2.888a.071.071,0,0,0-.047-.026H24.561l0,0-.546,2.984a.646.646,0,0,1-.462.5,6.864,6.864,0,0,0-1.581.654.642.642,0,0,1-.678-.027L18.8,3.471l-2.06,2.066,1.653,2.447a.645.645,0,0,1,.042.648,10.222,10.222,0,0,0-.666,1.693.647.647,0,0,1-.505.452l-2.927.515v1.452a.643.643,0,1,1-1.286,0V11.276a1.227,1.227,0,0,1,1.035-1.246l2.569-.452A11.5,11.5,0,0,1,17.12,8.4L15.648,6.219A1.218,1.218,0,0,1,15.8,4.651l2.087-2.086a1.173,1.173,0,0,1,.9-.41,1.193,1.193,0,0,1,.764.276L21.69,3.872A8.271,8.271,0,0,1,22.819,3.4l.49-2.664A1.3,1.3,0,0,1,24.524-.25h3.031a1.356,1.356,0,0,1,1.225.91.585.585,0,0,1,.026.1l.463,2.592a10.282,10.282,0,0,1,1.189.523l2.186-1.538a1.315,1.315,0,0,1,.72-.217,1.278,1.278,0,0,1,.879.35l0,0L36.356,4.6A1.215,1.215,0,0,1,36.5,6.164L34.973,8.375A7.072,7.072,0,0,1,35.5,9.586l2.573.453A1.229,1.229,0,0,1,39.1,11.3V12.75A.644.644,0,0,1,38.459,13.393Zm-.286-2.112V12.75a.286.286,0,0,0,.571,0V11.291a.872.872,0,0,0-.726-.9L35.229,9.9,35.2,9.8a6.711,6.711,0,0,0-.589-1.341l-.056-.1,1.654-2.4a.856.856,0,0,0-.1-1.108l0,0L34,2.727a.922.922,0,0,0-.632-.251.958.958,0,0,0-.522.158L30.485,4.291l-.1-.052a9.916,9.916,0,0,0-1.337-.588l-.1-.035-.5-2.8A.235.235,0,0,0,28.444.78a1,1,0,0,0-.905-.673H24.533a.944.944,0,0,0-.878.72L23.131,3.68l-.1.032a7.906,7.906,0,0,0-1.269.525l-.094.049L19.329,2.71a.836.836,0,0,0-.54-.2.817.817,0,0,0-.628.289l-.01.011-2.1,2.095a.858.858,0,0,0-.113,1.107l0,0,1.586,2.348-.043.092a11.134,11.134,0,0,0-.524,1.333l-.033.1-2.783.489a.867.867,0,0,0-.737.881v1.481a.286.286,0,0,0,.571,0V11.252a.3.3,0,0,1,.26-.307l2.962-.521a.287.287,0,0,0,.224-.2,10.581,10.581,0,0,1,.689-1.753.288.288,0,0,0-.019-.288L16.412,5.691a.289.289,0,0,1,.043-.375L18.594,3.17a.25.25,0,0,1,.187-.082.342.342,0,0,1,.21.081l2.5,1.689a.289.289,0,0,0,.3.012,7.222,7.222,0,0,1,1.663-.688.283.283,0,0,0,.205-.224L24.213.946a.361.361,0,0,1,.324-.268h2.989a.43.43,0,0,1,.36.243L27.9.943l.524,2.943a.287.287,0,0,0,.194.222,9.287,9.287,0,0,1,1.746.769.291.291,0,0,0,.141.037.287.287,0,0,0,.165-.052l2.5-1.757a.361.361,0,0,1,.2-.06.336.336,0,0,1,.23.087l.005,0,2.107,2.122a.287.287,0,0,1,.03.374L33.973,8.188a.286.286,0,0,0-.005.317,6.084,6.084,0,0,1,.757,1.719.286.286,0,0,0,.226.208l2.969.522A.31.31,0,0,1,38.173,11.281Z" transform="translate(-3.014 0.072)" fill="#555"/>
      <path id="Path_207008_-_Outline" data-name="Path 207008 - Outline" d="M12.651,36.735h0a1.737,1.737,0,0,1-.872-.236,1.717,1.717,0,0,1-.645-.65L9.364,32.8a1.77,1.77,0,0,1,.659-2.407l.015-.009a1.78,1.78,0,0,1,.862-.228h3.531A1.765,1.765,0,0,1,15.958,32.8l-1.87,3.225-.036.017A1.765,1.765,0,0,1,12.651,36.735Zm-2.433-6.048L10.2,30.7a1.412,1.412,0,0,0-.531,1.922l1.77,3.054a1.363,1.363,0,0,0,.513.517,1.381,1.381,0,0,0,.693.188,1.407,1.407,0,0,0,1.141-.587l.028-.039.018-.008,1.812-3.127a1.408,1.408,0,0,0-1.219-2.108H10.9A1.421,1.421,0,0,0,10.218,30.688ZM12.651,35.8a.819.819,0,0,1-.405-.108.777.777,0,0,1-.3-.3l-1.776-3.063a.838.838,0,0,1,.309-1.147l.14-.08.012.016a.882.882,0,0,1,.262-.05h3.537a.837.837,0,0,1,.834.834.8.8,0,0,1-.113.417l-1.731,2.992-.016.006-.04.067A.83.83,0,0,1,12.651,35.8Zm-2.06-4.257a.481.481,0,0,0-.11.612l1.777,3.064a.423.423,0,0,0,.163.162.463.463,0,0,0,.23.062.473.473,0,0,0,.407-.236l.1-.176.014-.005,1.669-2.884a.445.445,0,0,0,.064-.233.48.48,0,0,0-.478-.479H10.905a.525.525,0,0,0-.242.071Zm31.8,3.086h-24.7a.643.643,0,1,1,0-1.285h24.7a.643.643,0,1,1,0,1.285Zm-24.7-.928a.285.285,0,1,0,0,.571h24.7a.285.285,0,1,0,0-.571Zm-9.829.928H.394v-.357H7.859a.285.285,0,0,0,0-.571H.394a.285.285,0,1,0,0,.571v.357a.643.643,0,0,1,0-1.285H7.859a.643.643,0,0,1,0,1.285Zm23.315-5.816a1.757,1.757,0,0,1-.867-.23l-.076-.043v-.008a1.724,1.724,0,0,1-.568-.6L27.893,24.88a1.772,1.772,0,0,1,.642-2.4l.007-.007.022-.012a1.833,1.833,0,0,1,.862-.227h3.533A1.768,1.768,0,0,1,34.721,24a1.749,1.749,0,0,1-.239.88l-1.861,3.216-.036.021a1.773,1.773,0,0,1-1.406.7Zm-.615-.5a1.4,1.4,0,0,0,.615.143h0a1.415,1.415,0,0,0,1.141-.585l.022-.031.019-.011L34.173,24.7a1.392,1.392,0,0,0,.19-.7,1.41,1.41,0,0,0-1.405-1.408h-3.53a1.472,1.472,0,0,0-.67.171l0,0-.021.012A1.414,1.414,0,0,0,28.2,24.7l1.769,3.054a1.367,1.367,0,0,0,.511.514Zm.622-.428a.821.821,0,0,1-.4-.107.752.752,0,0,1-.3-.3L28.7,24.421a.844.844,0,0,1-.083-.64.822.822,0,0,1,.393-.5l.222-.124.006.033a.839.839,0,0,1,.187-.026H32.96a.841.841,0,0,1,.834.837.813.813,0,0,1-.112.416L31.949,27.4l-.016.006-.038.065A.824.824,0,0,1,31.181,27.888Zm-2.065-4.252a.462.462,0,0,0-.154.238.485.485,0,0,0,.047.369l1.778,3.067a.4.4,0,0,0,.16.158l0,0a.461.461,0,0,0,.228.061.467.467,0,0,0,.406-.235l.1-.177.015-.005,1.668-2.88A.457.457,0,0,0,33.437,24a.483.483,0,0,0-.478-.481H29.432a.487.487,0,0,0-.24.072Zm13.271,2.346H36.406a.643.643,0,0,1,0-1.285h5.981a.643.643,0,0,1,0,1.285Zm-5.981-.928a.285.285,0,0,0,0,.571h5.98a.285.285,0,0,0,0-.571Zm-10.455.928H.394a.643.643,0,1,1,0-1.285H25.951a.644.644,0,0,1,.641.641.643.643,0,0,1-.641.644ZM.394,25.054a.285.285,0,1,0,0,.571H25.95a.285.285,0,0,0,0-.571Z" transform="translate(0.786 -6.352)" fill="#555"/>
    </g>
  </g>
</svg>
