<svg id="visual" viewBox="0 0 1920 1080" width="1920" height="1080" xmlns="http://www.w3.org/2000/svg" xmlns:xlink="http://www.w3.org/1999/xlink" version="1.1"><rect x="0" y="0" width="1920" height="1080" fill="#DDE8F9"></rect><path d="M0 799L35.5 784.8C71 770.7 142 742.3 213.2 738.3C284.3 734.3 355.7 754.7 426.8 753.7C498 752.7 569 730.3 640 748.2C711 766 782 824 853.2 823.3C924.3 822.7 995.7 763.3 1066.8 748.3C1138 733.3 1209 762.7 1280 784C1351 805.3 1422 818.7 1493.2 814.3C1564.3 810 1635.7 788 1706.8 777C1778 766 1849 766 1884.5 766L1920 766L1920 1081L1884.5 1081C1849 1081 1778 1081 1706.8 1081C1635.7 1081 1564.3 1081 1493.2 1081C1422 1081 1351 1081 1280 1081C1209 1081 1138 1081 1066.8 1081C995.7 1081 924.3 1081 853.2 1081C782 1081 711 1081 640 1081C569 1081 498 1081 426.8 1081C355.7 1081 284.3 1081 213.2 1081C142 1081 71 1081 35.5 1081L0 1081Z" fill="#dde8f9"></path><path d="M0 809L35.5 805.7C71 802.3 142 795.7 213.2 792.7C284.3 789.7 355.7 790.3 426.8 781.3C498 772.3 569 753.7 640 764.2C711 774.7 782 814.3 853.2 822.2C924.3 830 995.7 806 1066.8 793.5C1138 781 1209 780 1280 779.3C1351 778.7 1422 778.3 1493.2 786C1564.3 793.7 1635.7 809.3 1706.8 814.8C1778 820.3 1849 815.7 1884.5 813.3L1920 811L1920 1081L1884.5 1081C1849 1081 1778 1081 1706.8 1081C1635.7 1081 1564.3 1081 1493.2 1081C1422 1081 1351 1081 1280 1081C1209 1081 1138 1081 1066.8 1081C995.7 1081 924.3 1081 853.2 1081C782 1081 711 1081 640 1081C569 1081 498 1081 426.8 1081C355.7 1081 284.3 1081 213.2 1081C142 1081 71 1081 35.5 1081L0 1081Z" fill="#d1dff2"></path><path d="M0 875L35.5 891.2C71 907.3 142 939.7 213.2 950.7C284.3 961.7 355.7 951.3 426.8 949.3C498 947.3 569 953.7 640 964C711 974.3 782 988.7 853.2 989.8C924.3 991 995.7 979 1066.8 964C1138 949 1209 931 1280 938.8C1351 946.7 1422 980.3 1493.2 977.8C1564.3 975.3 1635.7 936.7 1706.8 915.7C1778 894.7 1849 891.3 1884.5 889.7L1920 888L1920 1081L1884.5 1081C1849 1081 1778 1081 1706.8 1081C1635.7 1081 1564.3 1081 1493.2 1081C1422 1081 1351 1081 1280 1081C1209 1081 1138 1081 1066.8 1081C995.7 1081 924.3 1081 853.2 1081C782 1081 711 1081 640 1081C569 1081 498 1081 426.8 1081C355.7 1081 284.3 1081 213.2 1081C142 1081 71 1081 35.5 1081L0 1081Z" fill="#c5d5ec"></path><path d="M0 997L35.5 1003C71 1009 142 1021 213.2 1021.2C284.3 1021.3 355.7 1009.7 426.8 1013C498 1016.3 569 1034.7 640 1019.5C711 1004.3 782 955.7 853.2 935.8C924.3 916 995.7 925 1066.8 947.5C1138 970 1209 1006 1280 1015.2C1351 1024.3 1422 1006.7 1493.2 998.3C1564.3 990 1635.7 991 1706.8 1000.2C1778 1009.3 1849 1026.7 1884.5 1035.3L1920 1044L1920 1081L1884.5 1081C1849 1081 1778 1081 1706.8 1081C1635.7 1081 1564.3 1081 1493.2 1081C1422 1081 1351 1081 1280 1081C1209 1081 1138 1081 1066.8 1081C995.7 1081 924.3 1081 853.2 1081C782 1081 711 1081 640 1081C569 1081 498 1081 426.8 1081C355.7 1081 284.3 1081 213.2 1081C142 1081 71 1081 35.5 1081L0 1081Z" fill="#bacce6"></path></svg>