<svg id="visual" viewBox="0 0 900 600" width="900" height="600" xmlns="http://www.w3.org/2000/svg" xmlns:xlink="http://www.w3.org/1999/xlink" version="1.1"><rect x="0" y="0" width="900" height="600" fill="#5f62da"></rect><path d="M0 249L100 335L200 169L300 230L400 310L500 180L600 286L700 337L800 225L900 199L900 601L800 601L700 601L600 601L500 601L400 601L300 601L200 601L100 601L0 601Z" fill="#430af5"></path><path d="M0 335L100 299L200 207L300 324L400 361L500 364L600 284L700 227L800 245L900 252L900 601L800 601L700 601L600 601L500 601L400 601L300 601L200 601L100 601L0 601Z" fill="#3418e6"></path><path d="M0 358L100 307L200 370L300 266L400 291L500 326L600 282L700 360L800 296L900 334L900 601L800 601L700 601L600 601L500 601L400 601L300 601L200 601L100 601L0 601Z" fill="#251fd6"></path><path d="M0 433L100 316L200 339L300 410L400 435L500 416L600 421L700 417L800 418L900 429L900 601L800 601L700 601L600 601L500 601L400 601L300 601L200 601L100 601L0 601Z" fill="#1723c7"></path><path d="M0 361L100 428L200 366L300 450L400 360L500 398L600 450L700 417L800 419L900 403L900 601L800 601L700 601L600 601L500 601L400 601L300 601L200 601L100 601L0 601Z" fill="#0925b7"></path><path d="M0 421L100 443L200 476L300 424L400 418L500 435L600 481L700 468L800 491L900 453L900 601L800 601L700 601L600 601L500 601L400 601L300 601L200 601L100 601L0 601Z" fill="#0026a7"></path><path d="M0 502L100 499L200 492L300 526L400 471L500 496L600 499L700 506L800 494L900 502L900 601L800 601L700 601L600 601L500 601L400 601L300 601L200 601L100 601L0 601Z" fill="#002697"></path><path d="M0 533L100 529L200 556L300 551L400 566L500 565L600 561L700 548L800 546L900 525L900 601L800 601L700 601L600 601L500 601L400 601L300 601L200 601L100 601L0 601Z" fill="#002587"></path></svg>