<svg id="visual" viewBox="0 0 1920 1080" width="1920" height="1080" xmlns="http://www.w3.org/2000/svg" xmlns:xlink="http://www.w3.org/1999/xlink" version="1.1"><path d="M0 195L24.7 204C49.3 213 98.7 231 147.8 256.3C197 281.7 246 314.3 295.2 319.8C344.3 325.3 393.7 303.7 443 287.3C492.3 271 541.7 260 590.8 274.3C640 288.7 689 328.3 738.2 342.8C787.3 357.3 836.7 346.7 886 357.5C935.3 368.3 984.7 400.7 1034 389.8C1083.3 379 1132.7 325 1181.8 292.7C1231 260.3 1280 249.7 1329.2 262.3C1378.3 275 1427.7 311 1477 323.5C1526.3 336 1575.7 325 1624.8 299.7C1674 274.3 1723 234.7 1772.2 231.2C1821.3 227.7 1870.7 260.3 1895.3 276.7L1920 293L1920 0L1895.3 0C1870.7 0 1821.3 0 1772.2 0C1723 0 1674 0 1624.8 0C1575.7 0 1526.3 0 1477 0C1427.7 0 1378.3 0 1329.2 0C1280 0 1231 0 1181.8 0C1132.7 0 1083.3 0 1034 0C984.7 0 935.3 0 886 0C836.7 0 787.3 0 738.2 0C689 0 640 0 590.8 0C541.7 0 492.3 0 443 0C393.7 0 344.3 0 295.2 0C246 0 197 0 147.8 0C98.7 0 49.3 0 24.7 0L0 0Z" fill="#6198ff"></path><path d="M0 379L24.7 377.2C49.3 375.3 98.7 371.7 147.8 391.5C197 411.3 246 454.7 295.2 470.8C344.3 487 393.7 476 443 454.3C492.3 432.7 541.7 400.3 590.8 402.2C640 404 689 440 738.2 461.7C787.3 483.3 836.7 490.7 886 501.5C935.3 512.3 984.7 526.7 1034 521.2C1083.3 515.7 1132.7 490.3 1181.8 461.5C1231 432.7 1280 400.3 1329.2 411.2C1378.3 422 1427.7 476 1477 497.7C1526.3 519.3 1575.7 508.7 1624.8 479.8C1674 451 1723 404 1772.2 398.5C1821.3 393 1870.7 429 1895.3 447L1920 465L1920 291L1895.3 274.7C1870.7 258.3 1821.3 225.7 1772.2 229.2C1723 232.7 1674 272.3 1624.8 297.7C1575.7 323 1526.3 334 1477 321.5C1427.7 309 1378.3 273 1329.2 260.3C1280 247.7 1231 258.3 1181.8 290.7C1132.7 323 1083.3 377 1034 387.8C984.7 398.7 935.3 366.3 886 355.5C836.7 344.7 787.3 355.3 738.2 340.8C689 326.3 640 286.7 590.8 272.3C541.7 258 492.3 269 443 285.3C393.7 301.7 344.3 323.3 295.2 317.8C246 312.3 197 279.7 147.8 254.3C98.7 229 49.3 211 24.7 202L0 193Z" fill="#3c80ff"></path><path d="M0 746L24.7 762.2C49.3 778.3 98.7 810.7 147.8 826.8C197 843 246 843 295.2 839.5C344.3 836 393.7 829 443 814.7C492.3 800.3 541.7 778.7 590.8 771.5C640 764.3 689 771.7 738.2 768C787.3 764.3 836.7 749.7 886 755C935.3 760.3 984.7 785.7 1034 791.2C1083.3 796.7 1132.7 782.3 1181.8 773.3C1231 764.3 1280 760.7 1329.2 757C1378.3 753.3 1427.7 749.7 1477 751.5C1526.3 753.3 1575.7 760.7 1624.8 753.5C1674 746.3 1723 724.7 1772.2 730C1821.3 735.3 1870.7 767.7 1895.3 783.8L1920 800L1920 463L1895.3 445C1870.7 427 1821.3 391 1772.2 396.5C1723 402 1674 449 1624.8 477.8C1575.7 506.7 1526.3 517.3 1477 495.7C1427.7 474 1378.3 420 1329.2 409.2C1280 398.3 1231 430.7 1181.8 459.5C1132.7 488.3 1083.3 513.7 1034 519.2C984.7 524.7 935.3 510.3 886 499.5C836.7 488.7 787.3 481.3 738.2 459.7C689 438 640 402 590.8 400.2C541.7 398.3 492.3 430.7 443 452.3C393.7 474 344.3 485 295.2 468.8C246 452.7 197 409.3 147.8 389.5C98.7 369.7 49.3 373.3 24.7 375.2L0 377Z" fill="#0066ff"></path><path d="M0 865L24.7 875.8C49.3 886.7 98.7 908.3 147.8 919.2C197 930 246 930 295.2 930C344.3 930 393.7 930 443 922.8C492.3 915.7 541.7 901.3 590.8 890.5C640 879.7 689 872.3 738.2 861.5C787.3 850.7 836.7 836.3 886 849C935.3 861.7 984.7 901.3 1034 912.2C1083.3 923 1132.7 905 1181.8 896C1231 887 1280 887 1329.2 887C1378.3 887 1427.7 887 1477 892.3C1526.3 897.7 1575.7 908.3 1624.8 904.7C1674 901 1723 883 1772.2 888.3C1821.3 893.7 1870.7 922.3 1895.3 936.7L1920 951L1920 798L1895.3 781.8C1870.7 765.7 1821.3 733.3 1772.2 728C1723 722.7 1674 744.3 1624.8 751.5C1575.7 758.7 1526.3 751.3 1477 749.5C1427.7 747.7 1378.3 751.3 1329.2 755C1280 758.7 1231 762.3 1181.8 771.3C1132.7 780.3 1083.3 794.7 1034 789.2C984.7 783.7 935.3 758.3 886 753C836.7 747.7 787.3 762.3 738.2 766C689 769.7 640 762.3 590.8 769.5C541.7 776.7 492.3 798.3 443 812.7C393.7 827 344.3 834 295.2 837.5C246 841 197 841 147.8 824.8C98.7 808.7 49.3 776.3 24.7 760.2L0 744Z" fill="#0059dd"></path><path d="M0 1081L24.7 1081C49.3 1081 98.7 1081 147.8 1081C197 1081 246 1081 295.2 1081C344.3 1081 393.7 1081 443 1081C492.3 1081 541.7 1081 590.8 1081C640 1081 689 1081 738.2 1081C787.3 1081 836.7 1081 886 1081C935.3 1081 984.7 1081 1034 1081C1083.3 1081 1132.7 1081 1181.8 1081C1231 1081 1280 1081 1329.2 1081C1378.3 1081 1427.7 1081 1477 1081C1526.3 1081 1575.7 1081 1624.8 1081C1674 1081 1723 1081 1772.2 1081C1821.3 1081 1870.7 1081 1895.3 1081L1920 1081L1920 949L1895.3 934.7C1870.7 920.3 1821.3 891.7 1772.2 886.3C1723 881 1674 899 1624.8 902.7C1575.7 906.3 1526.3 895.7 1477 890.3C1427.7 885 1378.3 885 1329.2 885C1280 885 1231 885 1181.8 894C1132.7 903 1083.3 921 1034 910.2C984.7 899.3 935.3 859.7 886 847C836.7 834.3 787.3 848.7 738.2 859.5C689 870.3 640 877.7 590.8 888.5C541.7 899.3 492.3 913.7 443 920.8C393.7 928 344.3 928 295.2 928C246 928 197 928 147.8 917.2C98.7 906.3 49.3 884.7 24.7 873.8L0 863Z" fill="#004cbb"></path></svg>