<svg id="visual" viewBox="0 0 1920 1080" width="1920" height="1080" xmlns="http://www.w3.org/2000/svg" xmlns:xlink="http://www.w3.org/1999/xlink" version="1.1"><rect x="0" y="0" width="1920" height="1080" fill="#DDE8F9"></rect><path d="M0 674L35.5 690.2C71 706.3 142 738.7 213.2 737.5C284.3 736.3 355.7 701.7 426.8 698.8C498 696 569 725 640 756.5C711 788 782 822 853.2 793.3C924.3 764.7 995.7 673.3 1066.8 639.2C1138 605 1209 628 1280 644.7C1351 661.3 1422 671.7 1493.2 685.8C1564.3 700 1635.7 718 1706.8 704.7C1778 691.3 1849 646.7 1884.5 624.3L1920 602L1920 1081L1884.5 1081C1849 1081 1778 1081 1706.8 1081C1635.7 1081 1564.3 1081 1493.2 1081C1422 1081 1351 1081 1280 1081C1209 1081 1138 1081 1066.8 1081C995.7 1081 924.3 1081 853.2 1081C782 1081 711 1081 640 1081C569 1081 498 1081 426.8 1081C355.7 1081 284.3 1081 213.2 1081C142 1081 71 1081 35.5 1081L0 1081Z" fill="#C9DAF6" stroke-linecap="round" stroke-linejoin="miter"></path></svg>